<?xml version="1.0" encoding="UTF-8"?>
<svg width="100" height="100" viewBox="0 0 100 100" xmlns="http://www.w3.org/2000/svg">
    <!-- Melon body -->
    <circle cx="50" cy="50" r="45" fill="#4CAF50"/>
    
    <!-- Lighter green rind -->
    <path d="
        M 50 5
        A 45 45 0 0 1 95 50
        A 45 45 0 0 1 50 95
        A 45 45 0 0 1 5 50
        A 45 45 0 0 1 50 5
        Z
    " fill="none" stroke="#81C784" stroke-width="8"/>
    
    <!-- Dark green stripes -->
    <path d="M 20 30 Q 50 35 80 30" stroke="#2E7D32" stroke-width="3" fill="none"/>
    <path d="M 15 45 Q 50 50 85 45" stroke="#2E7D32" stroke-width="3" fill="none"/>
    <path d="M 15 60 Q 50 65 85 60" stroke="#2E7D32" stroke-width="3" fill="none"/>
    <path d="M 20 75 Q 50 80 80 75" stroke="#2E7D32" stroke-width="3" fill="none"/>
    
    <!-- Seeds -->
    <circle cx="35" cy="35" r="2" fill="#1B5E20"/>
    <circle cx="65" cy="35" r="2" fill="#1B5E20"/>
    <circle cx="50" cy="45" r="2" fill="#1B5E20"/>
    <circle cx="30" cy="55" r="2" fill="#1B5E20"/>
    <circle cx="70" cy="55" r="2" fill="#1B5E20"/>
    <circle cx="45" cy="65" r="2" fill="#1B5E20"/>
    <circle cx="60" cy="65" r="2" fill="#1B5E20"/>
    
    <!-- Highlight -->
    <circle cx="35" cy="35" r="15" fill="rgba(255,255,255,0.2)"/>
</svg> 